<svg id="Layer_1" data-name="Layer 1" xmlns="http://www.w3.org/2000/svg" viewBox="0 0 119.71 36.93"><defs><style>.cls-1{fill:#15cdfc;}</style></defs><path class="cls-1" d="M95.05,88.49c-6.89-.85-7-41.34,2.54-36.1-3.41,3.38-6.91,32.73-1.68,31.74,3.22-2.95,9.53-41.8,15.19-29.79C104.13,62.22,103.59,82.18,95.05,88.49Z" transform="translate(-90.15 -51.92)"/><path class="cls-1" d="M111.69,66.47c.61-.44,4.26-1.68,3.32.08-.39,2.47-6.8,15.53-.14,11.79,1.57-.21,8.6-10.46,7.45-5.58C112.91,88,105,81.11,111.69,66.47Zm5.39-8.32c-.42,1.87-3.36,2.6-3.59.33C113.46,55.45,118,54.08,117.08,58.15Z" transform="translate(-90.15 -51.92)"/><path class="cls-1" d="M137.16,73c-7.34,13.11-25.11,11.32-14.79-4.81,10.57-9.51,11.87,2.52.26,8C125,88.05,139,66.82,137.16,73Zm-10-6c-2.69.75-3.84,4.21-4.38,6.88C124.68,72.54,130.11,69,127.16,67Z" transform="translate(-90.15 -51.92)"/><path class="cls-1" d="M148.76,71.27c3.64-.75-5.28,9.17-6.68,9.81-11.26,4.76-4.45-14.06-3.71-19.3-1.66.36-8.65.53-6.11-2.17,2.08-.42,4.57.27,6.77-.37.74-2,.86-4.53,2.41-5.53,3.52-1.33,2.58,2.45,2.13,5,1.83-.19,11,1,6.36,3.05a28.2,28.2,0,0,0-7-.55c-.7,5.51-5.28,10.94-5,16.55C140.93,83.17,146.53,73.58,148.76,71.27Z" transform="translate(-90.15 -51.92)"/><path class="cls-1" d="M149.19,88.85c-15.1-.67,3.13-28.8,3.79-14.88-5.12-.27-10.17,11.45-3.87,13.12C158,84.28,158.42,63,162,54.75a20.92,20.92,0,0,0-6.79,1,4.3,4.3,0,0,1,0-3,31.52,31.52,0,0,1,14.49,0,1.65,1.65,0,0,1-.43,2.46,29.71,29.71,0,0,0-3.83-.43C162,64.75,162.56,86.61,149.19,88.85Z" transform="translate(-90.15 -51.92)"/><path class="cls-1" d="M178,74.94c-1.83,9.52-14.07,9.19-11.58-1.52,1-9.27,12.62-11.7,11.93-.66,2.66-.94,5.2-3,7.38-4.53C187.62,70,179.78,74.27,178,74.94Zm-9.1.94c-.43,5.6,4.82,4.16,5.86,0a4.67,4.67,0,0,1-5.32-3A11.46,11.46,0,0,0,168.92,75.88Zm2.5-6.87c-.74,2.63,1.05,5.23,4,4.49C176.76,70.39,174.71,64.79,171.42,69Z" transform="translate(-90.15 -51.92)"/><path class="cls-1" d="M191.14,58.77c-.78,6.56-6.7,12.68-5.66,19,2.4,5.45,6.77-3.81,6.76-6.49-5.28-2,3-8,2.93-1.64,2.39.1,5-1.15,7.22-1.68,1.44,2.17-5.61,3.35-7.22,3.48-2.54,12.77-15.4,14.69-12-1.33,1.06-5.42,2.77-11.54,5.43-16.21C192.82,50.63,192.18,55.49,191.14,58.77Z" transform="translate(-90.15 -51.92)"/><path class="cls-1" d="M204.31,79.83c5.67.37.22-7.44-.24-10.16-4.16,6.88-7.25,7-1.6-.62-2.55-5.19,9.65-8.29,4.06-1.57.2,3.48,3,6.14,3.32,9.46-3.62,10.82-15.27,2.3-7.18-.67A11.07,11.07,0,0,0,204.31,79.83Z" transform="translate(-90.15 -51.92)"/></svg>